<?xml version="1.0" encoding="UTF-8" standalone="no"?>
<svg
   xmlns:dc="http://purl.org/dc/elements/1.1/"
   xmlns:cc="http://creativecommons.org/ns#"
   xmlns:rdf="http://www.w3.org/1999/02/22-rdf-syntax-ns#"
   xmlns:svg="http://www.w3.org/2000/svg"
   xmlns="http://www.w3.org/2000/svg"
   xmlns:sodipodi="http://sodipodi.sourceforge.net/DTD/sodipodi-0.dtd"
   xmlns:inkscape="http://www.inkscape.org/namespaces/inkscape"
   sodipodi:docname="folder-publicshare.svg"
   viewBox="0 0 16 16"
   inkscape:version="1.0 (4035a4fb49, 2020-05-01)"
   version="1.1"
   id="svg2"
   height="16"
   width="16">
  <defs
     id="defs4" />
  <sodipodi:namedview
     inkscape:document-rotation="0"
     units="px"
     inkscape:window-maximized="1"
     inkscape:window-y="0"
     inkscape:window-x="0"
     inkscape:window-height="1031"
     inkscape:window-width="1920"
     borderlayer="true"
     inkscape:showpageshadow="false"
     showgrid="true"
     inkscape:current-layer="layer1"
     inkscape:document-units="px"
     inkscape:cy="7.426566"
     inkscape:cx="5.3421539"
     inkscape:zoom="30.893096"
     inkscape:pageshadow="2"
     inkscape:pageopacity="0.0"
     borderopacity="1.0"
     bordercolor="#666666"
     pagecolor="#ffffff"
     id="base">
    <inkscape:grid
       id="grid4101"
       type="xygrid" />
    <sodipodi:guide
       id="guide4071"
       orientation="12,0"
       position="2,14.000017" />
    <sodipodi:guide
       id="guide4073"
       orientation="0,12"
       position="2,2.0000174" />
    <sodipodi:guide
       id="guide4075"
       orientation="-12,0"
       position="14,2.0000174" />
    <sodipodi:guide
       id="guide4077"
       orientation="0,-12"
       position="14,14.000017" />
  </sodipodi:namedview>
  <metadata
     id="metadata7">
    <rdf:RDF>
      <cc:Work
         rdf:about="">
        <dc:format>image/svg+xml</dc:format>
        <dc:type
           rdf:resource="http://purl.org/dc/dcmitype/StillImage" />
        <dc:title />
      </cc:Work>
    </rdf:RDF>
  </metadata>
  <g
     transform="translate(0,-1036.3622)"
     id="layer1"
     inkscape:groupmode="layer"
     inkscape:label="Capa 1">
    <path
       sodipodi:nodetypes="cccccccccccccccccccccccccccccccccccccccccccc"
       inkscape:connector-curvature="0"
       id="folderGlyph"
       transform="translate(0,1036.3622)"
       d="M 7.9902344,2 4,5.9921875 4,6.0019531 4,7 l 2,0 0,2.999 0,1 4,0.002 0,-1 0,-2.9989999 2,0 0,-1 0,-0.00977 L 8.0097656,2 8,2 Z M 8,3.40625 10.59375,6 10,6 9,6 9,9.999 7,9.999 7,7 7,6 5.40625,6 Z M 3,9 l 0,1 0,4 1,0 9,0 0,-1 0,-4 -1,0 -1,0 0,1 1,0 0,3 -8,0 0,-3 1,0 0,-1 -1,0 z"
       style="color:#000000;clip-rule:nonzero;display:inline;overflow:visible;visibility:visible;opacity:1;isolation:auto;mix-blend-mode:normal;color-interpolation:sRGB;color-interpolation-filters:linearRGB;solid-color:#000000;solid-opacity:1;fill:#5599ff;fill-opacity:1;fill-rule:nonzero;stroke:none;stroke-width:1;stroke-linecap:butt;stroke-linejoin:miter;stroke-miterlimit:4;stroke-dasharray:none;stroke-dashoffset:0;stroke-opacity:1;color-rendering:auto;image-rendering:auto;shape-rendering:auto;text-rendering:auto;enable-background:accumulate" />
  </g>
</svg>
