<?xml version="1.0" encoding="UTF-8" standalone="no"?>
<svg
   xmlns:dc="http://purl.org/dc/elements/1.1/"
   xmlns:cc="http://creativecommons.org/ns#"
   xmlns:rdf="http://www.w3.org/1999/02/22-rdf-syntax-ns#"
   xmlns:svg="http://www.w3.org/2000/svg"
   xmlns="http://www.w3.org/2000/svg"
   xmlns:sodipodi="http://sodipodi.sourceforge.net/DTD/sodipodi-0.dtd"
   xmlns:inkscape="http://www.inkscape.org/namespaces/inkscape"
   sodipodi:docname="folder-templates.svg"
   viewBox="0 0 16 16"
   inkscape:version="1.0 (4035a4fb49, 2020-05-01)"
   version="1.1"
   id="svg2"
   height="16"
   width="16">
  <defs
     id="defs4" />
  <sodipodi:namedview
     inkscape:document-rotation="0"
     units="px"
     inkscape:window-maximized="1"
     inkscape:window-y="0"
     inkscape:window-x="0"
     inkscape:window-height="1031"
     inkscape:window-width="1920"
     borderlayer="true"
     inkscape:showpageshadow="false"
     showgrid="true"
     inkscape:current-layer="layer1"
     inkscape:document-units="px"
     inkscape:cy="7.2000736"
     inkscape:cx="7.9219276"
     inkscape:zoom="40.968847"
     inkscape:pageshadow="2"
     inkscape:pageopacity="0.0"
     borderopacity="1.0"
     bordercolor="#666666"
     pagecolor="#ffffff"
     id="base">
    <inkscape:grid
       id="grid4101"
       type="xygrid" />
    <sodipodi:guide
       id="guide4071"
       orientation="12,0"
       position="2,14.000017" />
    <sodipodi:guide
       id="guide4073"
       orientation="0,12"
       position="2,2.0000174" />
    <sodipodi:guide
       id="guide4075"
       orientation="-12,0"
       position="14,2.0000174" />
    <sodipodi:guide
       id="guide4077"
       orientation="0,-12"
       position="14,14.000017" />
  </sodipodi:namedview>
  <metadata
     id="metadata7">
    <rdf:RDF>
      <cc:Work
         rdf:about="">
        <dc:format>image/svg+xml</dc:format>
        <dc:type
           rdf:resource="http://purl.org/dc/dcmitype/StillImage" />
        <dc:title />
      </cc:Work>
    </rdf:RDF>
  </metadata>
  <g
     transform="translate(0,-1036.3622)"
     id="layer1"
     inkscape:groupmode="layer"
     inkscape:label="Capa 1">
    <path
       id="path4142"
       transform="translate(0,1036.3622)"
       d="M 6 2 L 3 5 L 3 6 L 3 7 L 3 14 L 7 14 L 7 13 L 4 13 L 4 7 L 4 6 L 7 6 L 7 3 L 8 3 L 12 3 L 12 6 L 13 6 L 13 2 L 8 2 L 7 2 L 6 2 z M 12 6 L 11 6 L 11 7 L 12 7 L 12 6 z M 12 7 L 12 8 L 13 8 L 13 7 L 12 7 z M 12 8 L 11 8 L 11 9 L 12 9 L 12 8 z M 12 9 L 12 10 L 13 10 L 13 9 L 12 9 z M 12 10 L 11 10 L 11 11 L 12 11 L 12 10 z M 12 11 L 12 12 L 13 12 L 13 11 L 12 11 z M 12 12 L 11 12 L 11 13 L 12 13 L 12 12 z M 12 13 L 12 14 L 13 14 L 13 13 L 12 13 z M 11 13 L 10 13 L 10 14 L 11 14 L 11 13 z M 10 13 L 10 12 L 9 12 L 9 13 L 10 13 z M 9 13 L 8 13 L 8 14 L 9 14 L 9 13 z M 8 13 L 8 12 L 7 12 L 7 13 L 8 13 z "
       style="color:#000000;clip-rule:nonzero;display:inline;overflow:visible;visibility:visible;opacity:1;isolation:auto;mix-blend-mode:normal;color-interpolation:sRGB;color-interpolation-filters:linearRGB;solid-color:#000000;solid-opacity:1;fill:#5599ff;fill-opacity:1;fill-rule:nonzero;stroke:none;stroke-width:1;stroke-linecap:butt;stroke-linejoin:miter;stroke-miterlimit:4;stroke-dasharray:none;stroke-dashoffset:0;stroke-opacity:1;color-rendering:auto;image-rendering:auto;shape-rendering:auto;text-rendering:auto;enable-background:accumulate" />
  </g>
</svg>
