<?xml version="1.0" encoding="UTF-8" standalone="no"?>
<svg
   xmlns:dc="http://purl.org/dc/elements/1.1/"
   xmlns:cc="http://creativecommons.org/ns#"
   xmlns:rdf="http://www.w3.org/1999/02/22-rdf-syntax-ns#"
   xmlns:svg="http://www.w3.org/2000/svg"
   xmlns="http://www.w3.org/2000/svg"
   xmlns:sodipodi="http://sodipodi.sourceforge.net/DTD/sodipodi-0.dtd"
   xmlns:inkscape="http://www.inkscape.org/namespaces/inkscape"
   sodipodi:docname="audio-volume-medium.svg"
   inkscape:version="1.0 (4035a4fb49, 2020-05-01)"
   version="1.1"
   id="svg4359"
   height="22"
   width="22">
  <defs
     id="defs4361" />
  <sodipodi:namedview
     inkscape:document-rotation="0"
     fit-margin-bottom="0"
     fit-margin-right="0"
     fit-margin-left="0"
     fit-margin-top="0"
     showguides="true"
     borderlayer="true"
     inkscape:showpageshadow="false"
     inkscape:window-maximized="1"
     inkscape:window-y="0"
     inkscape:window-x="0"
     inkscape:window-height="1031"
     inkscape:window-width="1920"
     inkscape:document-units="px"
     inkscape:grid-bbox="true"
     showgrid="true"
     inkscape:current-layer="layer1"
     inkscape:cy="12.169468"
     inkscape:cx="7.6869484"
     inkscape:zoom="15.438499"
     inkscape:pageshadow="2"
     inkscape:pageopacity="0.0"
     borderopacity="1.0"
     bordercolor="#666666"
     pagecolor="#ffffff"
     id="base">
    <inkscape:grid
       empspacing="2"
       originy="0"
       originx="0"
       id="grid4105"
       type="xygrid" />
    <sodipodi:guide
       id="guide4111"
       orientation="22,0"
       position="-1,22" />
    <sodipodi:guide
       id="guide4113"
       orientation="0,22"
       position="23,-1" />
    <sodipodi:guide
       id="guide4115"
       orientation="-22,0"
       position="23,-1" />
    <sodipodi:guide
       id="guide4130"
       orientation="16,0"
       position="11,10" />
    <sodipodi:guide
       id="guide4132"
       orientation="0,16"
       position="12,11" />
    <sodipodi:guide
       id="guide4136"
       orientation="0,-16"
       position="19,19" />
    <sodipodi:guide
       id="guide4152"
       orientation="19.000011,0"
       position="3,22" />
    <sodipodi:guide
       id="guide4154"
       orientation="0,4"
       position="3,2.9999886" />
    <sodipodi:guide
       id="guide4162"
       orientation="0,4.0000019"
       position="15,3" />
    <sodipodi:guide
       id="guide4164"
       orientation="-19,0"
       position="19.000002,3" />
    <sodipodi:guide
       id="guide4166"
       orientation="0,-4.0000019"
       position="-1,23" />
  </sodipodi:namedview>
  <metadata
     id="metadata4364">
    <rdf:RDF>
      <cc:Work
         rdf:about="">
        <dc:format>image/svg+xml</dc:format>
        <dc:type
           rdf:resource="http://purl.org/dc/dcmitype/StillImage" />
        <dc:title />
      </cc:Work>
    </rdf:RDF>
  </metadata>
  <g
     transform="translate(0,-26)"
     inkscape:groupmode="layer"
     inkscape:label="Layer 1"
     id="layer1">
    <rect
       y="25"
       x="-3"
       height="2"
       width="2"
       id="rect4147-8"
       style="color:#000000;clip-rule:nonzero;display:inline;overflow:visible;visibility:visible;opacity:1;isolation:auto;mix-blend-mode:normal;color-interpolation:sRGB;color-interpolation-filters:linearRGB;solid-color:#000000;solid-opacity:1;fill:#0066ff;fill-opacity:1;fill-rule:nonzero;stroke:none;stroke-width:1;stroke-linecap:butt;stroke-linejoin:miter;stroke-miterlimit:4;stroke-dasharray:none;stroke-dashoffset:0;stroke-opacity:1;color-rendering:auto;image-rendering:auto;shape-rendering:auto;text-rendering:auto;enable-background:accumulate" />
    <path
       inkscape:connector-curvature="0"
       id="path4152"
       d="m 16.654156,31.345703 -0.707031,0.707031 A 7,7 0 0 1 17.999859,37 7,7 0 0 1 15.947125,41.947266 l 0.707031,0.707031 A 8,8 0 0 0 18.999859,37 8,8 0 0 0 16.654156,31.345703 Z"
       style="opacity:0.5;fill:#2a99e9;fill-opacity:1;stroke:none;stroke-width:0.1;stroke-linecap:round;stroke-linejoin:miter;stroke-miterlimit:4;stroke-dasharray:none;stroke-opacity:0.29943501" />
    <path
       inkscape:connector-curvature="0"
       id="path4157"
       d="m 15.240093,32.759766 -0.707031,0.707031 A 5,5 0 0 1 15.999859,37 5,5 0 0 1 14.533062,40.533203 l 0.707031,0.707031 A 6,6 0 0 0 16.999859,37 6,6 0 0 0 15.240093,32.759766 Z"
       style="opacity:1;fill:#2a7fff;fill-opacity:1;stroke:none;stroke-width:0.1;stroke-linecap:round;stroke-linejoin:miter;stroke-miterlimit:4;stroke-dasharray:none;stroke-opacity:0.29943501" />
    <path
       inkscape:connector-curvature="0"
       id="path4162"
       d="M 13.826031,34.173828 13.119,34.880859 A 3,3 0 0 1 13.999859,37 3,3 0 0 1 13.119,39.119141 l 0.707031,0.707031 A 4,4 0 0 0 14.999859,37 4,4 0 0 0 13.826031,34.173828 Z"
       style="opacity:1;fill:#2a7fff;fill-opacity:1;stroke:none;stroke-width:0.1;stroke-linecap:round;stroke-linejoin:miter;stroke-miterlimit:4;stroke-dasharray:none;stroke-opacity:0.29943501" />
    <path
       sodipodi:nodetypes="cccccccccccccc"
       id="path4176"
       d="m 12.099609,29 c -0.748146,0 -3.2973254,1.85095 -4.8535152,3.978516 L 6,34 l 0,2 0,2 0,2 1.2460938,1.021484 C 8.8022836,43.14905 11.351463,45 12.099609,45 Z M 5,34 c -1,0 -2,1 -2,1 l 0,4 c 0,0 1,1 2,1 z"
       style="fill:#2a7fff;fill-opacity:1;fill-rule:evenodd;stroke:none;stroke-width:1px;stroke-linecap:butt;stroke-linejoin:miter;stroke-opacity:1"
       inkscape:connector-curvature="0" />
  </g>
</svg>
