<?xml version="1.0" encoding="UTF-8" standalone="no"?>
<svg
   xmlns:dc="http://purl.org/dc/elements/1.1/"
   xmlns:cc="http://creativecommons.org/ns#"
   xmlns:rdf="http://www.w3.org/1999/02/22-rdf-syntax-ns#"
   xmlns:svg="http://www.w3.org/2000/svg"
   xmlns="http://www.w3.org/2000/svg"
   xmlns:xlink="http://www.w3.org/1999/xlink"
   xmlns:sodipodi="http://sodipodi.sourceforge.net/DTD/sodipodi-0.dtd"
   xmlns:inkscape="http://www.inkscape.org/namespaces/inkscape"
   width="48"
   height="48"
   id="svg2"
   version="1.1"
   inkscape:version="1.0 (4035a4fb49, 2020-05-01)"
   inkscape:export-filename="/home/uri/Documentos/dibujo.png"
   inkscape:export-xdpi="135"
   inkscape:export-ydpi="135"
   sodipodi:docname="computer.svg">
  <defs
     id="defs4">
    <linearGradient
       inkscape:collect="always"
       id="linearGradient849">
      <stop
         style="stop-color:#1a1a1a;stop-opacity:1;"
         offset="0"
         id="stop845" />
      <stop
         style="stop-color:#1a1a1a;stop-opacity:0;"
         offset="1"
         id="stop847" />
    </linearGradient>
    <linearGradient
       inkscape:collect="always"
       id="linearGradient7855">
      <stop
         style="stop-color:#46a8fb;stop-opacity:1"
         offset="0"
         id="stop7857" />
      <stop
         style="stop-color:#54f3fd;stop-opacity:1"
         offset="1"
         id="stop7859" />
    </linearGradient>
    <linearGradient
       gradientTransform="translate(-2.8891602e-6,1.3491758e-4)"
       inkscape:collect="always"
       xlink:href="#linearGradient7855"
       id="linearGradient7861"
       x1="30.296669"
       y1="1049.4602"
       x2="30.296669"
       y2="1007.3235"
       gradientUnits="userSpaceOnUse" />
    <linearGradient
       inkscape:collect="always"
       xlink:href="#linearGradient849"
       id="linearGradient851"
       x1="172.70216"
       y1="837.89337"
       x2="206.40352"
       y2="857.49371"
       gradientUnits="userSpaceOnUse" />
  </defs>
  <sodipodi:namedview
     id="base"
     pagecolor="#ffffff"
     bordercolor="#666666"
     borderopacity="1.0"
     inkscape:pageopacity="0.0"
     inkscape:pageshadow="2"
     inkscape:zoom="5.7231458"
     inkscape:cx="-5.5703687"
     inkscape:cy="-17.859973"
     inkscape:document-units="px"
     inkscape:current-layer="layer1"
     showgrid="false"
     fit-margin-top="0"
     fit-margin-left="0"
     fit-margin-right="0"
     fit-margin-bottom="0"
     inkscape:window-width="1469"
     inkscape:window-height="1027"
     inkscape:window-x="222"
     inkscape:window-y="0"
     inkscape:window-maximized="0"
     width="0px"
     height="0px"
     showguides="false"
     inkscape:document-rotation="0" />
  <metadata
     id="metadata7">
    <rdf:RDF>
      <cc:Work
         rdf:about="">
        <dc:format>image/svg+xml</dc:format>
        <dc:type
           rdf:resource="http://purl.org/dc/dcmitype/StillImage" />
        <dc:title />
      </cc:Work>
    </rdf:RDF>
  </metadata>
  <g
     inkscape:label="Capa 1"
     inkscape:groupmode="layer"
     id="layer1"
     transform="translate(-161.42857,-824.36221)">
    <g
       transform="translate(161.55931,-179.6355)"
       id="layer1-0"
       inkscape:label="Capa 1">
      <rect
         ry="6.2786646"
         y="1006.1622"
         x="1.8000183"
         height="44.399963"
         width="44.399963"
         id="rect5263-5"
         style="fill:#000000;fill-opacity:0.0196078;stroke:none" />
      <rect
         style="fill:#000000;fill-opacity:0.0392157;stroke:none"
         id="rect5261-9"
         width="43.799973"
         height="43.799973"
         x="2.1000061"
         y="1006.4623"
         ry="6.1938181" />
      <rect
         ry="6.1089716"
         y="1006.7626"
         x="2.3999939"
         height="43.199982"
         width="43.199982"
         id="rect5259-3"
         style="fill:#000000;fill-opacity:0.0784314;stroke:none" />
      <rect
         style="fill:#000000;fill-opacity:0.156863;stroke:none"
         id="rect5257-8"
         width="42.599991"
         height="42.599991"
         x="2.7000122"
         y="1007.0624"
         ry="6.0241251" />
      <rect
         ry="5.9392786"
         y="1007.3622"
         x="3"
         height="42"
         width="42"
         id="rect5237-1"
         style="fill:url(#linearGradient7861);fill-opacity:1;stroke:none" />
      <path
         id="rect5265-2"
         d="m 2.9999961,1040.9247 v 2.5 c 0,3.2904 2.64714,5.9375 5.9375,5.9375 H 39.062496 c 3.29036,0 5.9375,-2.6471 5.9375,-5.9375 v -2.5 c 0,3.2904 -2.64714,5.9375 -5.9375,5.9375 H 8.9374961 c -3.29036,0 -5.9375,-2.6471 -5.9375,-5.9375 z"
         style="fill:#000000;fill-opacity:0.117647;stroke:none"
         inkscape:connector-curvature="0" />
      <path
         id="path5252-0"
         d="m 2.9999961,1042.9247 v 0.5 c 0,3.2904 2.64714,5.9375 5.9375,5.9375 H 39.062496 c 3.29036,0 5.9375,-2.6471 5.9375,-5.9375 v -0.5 c 0,3.2904 -2.64714,5.9375 -5.9375,5.9375 H 8.9374961 c -3.29036,0 -5.9375,-2.6471 -5.9375,-5.9375 z"
         style="fill:#000000;fill-opacity:0.0980392;stroke:none"
         inkscape:connector-curvature="0" />
      <path
         inkscape:connector-curvature="0"
         d="m 11.142859,1017.5289 v 15.1667 h 25.714285 v -15.1667 z m 0.015,-2.1667 h 25.684949 c 1.193015,0 2.157193,0.9677 2.157193,2.1614 v 15.1773 c 0,1.1943 -0.965957,2.1613 -2.157535,2.1613 h -25.68495 c -1.1933355,0 -2.1575141,-0.9676 -2.1575141,-2.1613 v -15.1773 c 0,-1.1944 0.9659571,-2.1614 2.1575141,-2.1614 z m -2.1578571,23.8334 v -2.1667 H 21.857145 v 2.1667 h 4.285714 v -2.1667 h 12.857142 v 2.1667 c 0,1.1966 -0.9594,2.1666 -2.142857,2.1666 H 11.142859 c -1.1834571,0 -2.1428571,-0.97 -2.1428571,-2.1666 z m 0,0"
         id="Rectangle 130"
         style="fill:#000000;fill-opacity:0.498039;stroke:none" />
    </g>
    <rect
       style="mix-blend-mode:multiply;fill:url(#linearGradient851);fill-opacity:1"
       id="rect843"
       width="25.714285"
       height="15.1667"
       x="172.70216"
       y="837.89337" />
  </g>
</svg>
