<?xml version="1.0" encoding="UTF-8" standalone="no"?>
<svg
   xmlns:dc="http://purl.org/dc/elements/1.1/"
   xmlns:cc="http://creativecommons.org/ns#"
   xmlns:rdf="http://www.w3.org/1999/02/22-rdf-syntax-ns#"
   xmlns:svg="http://www.w3.org/2000/svg"
   xmlns="http://www.w3.org/2000/svg"
   xmlns:sodipodi="http://sodipodi.sourceforge.net/DTD/sodipodi-0.dtd"
   xmlns:inkscape="http://www.inkscape.org/namespaces/inkscape"
   sodipodi:docname="system-lock-screen.svg"
   inkscape:version="1.0 (4035a4fb49, 2020-05-01)"
   version="1.1"
   id="svg4359"
   height="32"
   width="32">
  <defs
     id="defs4361" />
  <sodipodi:namedview
     inkscape:document-rotation="0"
     fit-margin-bottom="0"
     fit-margin-right="0"
     fit-margin-left="0"
     fit-margin-top="0"
     showguides="true"
     borderlayer="true"
     inkscape:showpageshadow="false"
     inkscape:window-maximized="1"
     inkscape:window-y="0"
     inkscape:window-x="0"
     inkscape:window-height="1031"
     inkscape:window-width="1920"
     inkscape:document-units="px"
     inkscape:grid-bbox="true"
     showgrid="true"
     inkscape:current-layer="layer1"
     inkscape:cy="15.311854"
     inkscape:cx="18.625621"
     inkscape:zoom="17.448276"
     inkscape:pageshadow="2"
     inkscape:pageopacity="0.0"
     borderopacity="1.0"
     bordercolor="#666666"
     pagecolor="#ffffff"
     id="base">
    <inkscape:grid
       originy="5"
       originx="5"
       id="grid4105"
       type="xygrid" />
    <sodipodi:guide
       id="guide4111"
       orientation="22,0"
       position="4,4" />
    <sodipodi:guide
       id="guide4113"
       orientation="0,22"
       position="4,4" />
    <sodipodi:guide
       id="guide4115"
       orientation="-22,0"
       position="28,26" />
    <sodipodi:guide
       id="guide4130"
       orientation="16,0"
       position="16,15" />
    <sodipodi:guide
       id="guide4132"
       orientation="0,16"
       position="17,16" />
    <sodipodi:guide
       id="guide4166"
       orientation="0,-4.0000019"
       position="28,28" />
  </sodipodi:namedview>
  <metadata
     id="metadata4364">
    <rdf:RDF>
      <cc:Work
         rdf:about="">
        <dc:format>image/svg+xml</dc:format>
        <dc:type
           rdf:resource="http://purl.org/dc/dcmitype/StillImage" />
        <dc:title />
      </cc:Work>
    </rdf:RDF>
  </metadata>
  <g
     transform="translate(5,-21)"
     inkscape:groupmode="layer"
     inkscape:label="Layer 1"
     id="layer1">
    <rect
       y="19"
       x="-5"
       height="2"
       width="2"
       id="rect4147"
       style="color:#000000;clip-rule:nonzero;display:inline;overflow:visible;visibility:visible;opacity:1;isolation:auto;mix-blend-mode:normal;color-interpolation:sRGB;color-interpolation-filters:linearRGB;solid-color:#000000;solid-opacity:1;fill:#5599ff;fill-opacity:1;fill-rule:nonzero;stroke:none;stroke-width:1;stroke-linecap:butt;stroke-linejoin:miter;stroke-miterlimit:4;stroke-dasharray:none;stroke-dashoffset:0;stroke-opacity:1;color-rendering:auto;image-rendering:auto;shape-rendering:auto;text-rendering:auto;enable-background:accumulate" />
    <path
       sodipodi:nodetypes="ssssssssssssccccccssssccss"
       inkscape:connector-curvature="0"
       id="path4157"
       transform="translate(-5,21)"
       d="M 16,4 C 9.372583,4 4,9.372583 4,16 4,22.627417 9.372583,28 16,28 22.627417,28 28,22.627417 28,16 28,9.372583 22.627417,4 16,4 Z m 0,2 c 5.522847,0 10,4.477153 10,10 0,5.522847 -4.477153,10 -10,10 C 10.477153,26 6,21.522847 6,16 6,10.477153 10.477153,6 16,6 Z m 0,4 c -1.662,0 -3,1.338 -3,3 l 0,3 -1,0 0,6 8,0 0,-6 -1,0 0,-3 c 0,-1.662 -1.338,-3 -3,-3 z m 0,2 c 0.554,0 1,0.446 1,1 l 0,3 -2,0 0,-3 c 0,-0.554 0.446,-1 1,-1 z"
       style="opacity:1;fill:#5599ff;fill-opacity:1;stroke:none;stroke-width:0.1;stroke-linecap:round;stroke-linejoin:miter;stroke-miterlimit:4;stroke-dasharray:none;stroke-opacity:0.29943501" />
  </g>
</svg>
